<svg version="1.1" width="1706.67" height="1706.67" viewBox="0 0 1280 1280" xmlns="http://www.w3.org/2000/svg" xmlns:xlink="http://www.w3.org/1999/xlink" overflow="hidden"><g stroke="none" fill="#000000" transform="matrix(0.1,0,0,-0.1,0,1280)"><path d=" M 6090 12534 C 5207 12490 4397 12288 3672 11930 C 3037 11617 2526 11247 1989 10710 C 920 9643 334 8402 195 6915 C 173 6677 165 6180 179 5935 C 257 4604 685 3465 1485 2465 C 1765 2116 2154 1722 2500 1439 C 3386 714 4394 280 5535 131 C 5834 92 5964 85 6405 85 C 6865 86 6998 94 7360 146 C 8497 308 9526 776 10415 1536 C 10608 1700 11010 2102 11174 2295 C 11779 3003 12201 3802 12425 4663 C 12734 5854 12694 7181 12315 8325 C 11998 9281 11411 10170 10610 10906 C 9560 11870 8382 12390 6970 12515 C 6803 12530 6249 12542 6090 12534 Z M 5949 11686 C 5947 11684 5896 11661 5835 11636 C 5275 11398 4712 10935 4431 10483 C 4196 10104 4073 9660 4051 9114 C 4019 8324 4193 7752 4615 7262 C 4771 7081 5028 6864 5275 6704 C 5503 6557 5870 6416 6415 6265 C 7119 6070 7291 6011 7560 5874 C 7629 5839 7719 5789 7760 5762 C 7801 5735 7876 5690 7925 5660 C 8320 5427 8621 5100 8835 4673 C 8957 4428 9036 4175 9082 3880 C 9100 3766 9100 3281 9082 3140 C 9059 2958 9020 2780 8969 2624 C 8779 2046 8420 1645 7845 1369 C 7467 1187 7073 1088 6485 1028 C 6412 1020 6211 1015 5970 1015 C 5555 1015 5463 1022 5185 1071 C 4507 1193 3795 1527 3194 2005 C 2018 2941 1300 4151 1106 5523 C 1062 5832 1055 5938 1055 6315 C 1055 6692 1062 6802 1106 7108 C 1243 8072 1650 8966 2313 9760 C 3222 10849 4368 11493 5690 11659 C 5781 11670 5871 11681 5890 11683 C 5909 11685 5931 11688 5939 11688 C 5947 11689 5951 11688 5949 11686 Z M 6525 9836 C 6651 9795 6743 9738 6841 9641 C 6915 9568 6934 9541 6973 9460 C 6998 9408 7024 9340 7031 9310 C 7051 9228 7048 9010 7026 8930 C 6971 8729 6823 8552 6635 8460 C 6535 8411 6453 8391 6325 8384 C 6105 8372 5922 8438 5757 8590 C 5666 8674 5601 8774 5564 8886 C 5537 8969 5535 8986 5535 9125 C 5536 9268 5537 9279 5567 9357 C 5654 9585 5848 9771 6075 9843 C 6152 9867 6165 9869 6310 9866 C 6424 9863 6458 9858 6525 9836 Z" stroke="none" stroke-width="1" stroke-linecap="butt" fill="#FFFFFF" fill-opacity="1"/><path d=" M 6130 4301 C 5968 4266 5837 4195 5711 4076 C 5595 3964 5512 3825 5469 3665 C 5437 3550 5437 3320 5469 3205 C 5554 2894 5796 2656 6108 2578 C 6229 2547 6421 2548 6535 2579 C 6790 2648 7012 2835 7130 3082 C 7275 3384 7217 3782 6993 4021 C 6862 4159 6741 4236 6573 4286 C 6453 4322 6256 4329 6130 4301 Z" stroke="none" stroke-width="1" stroke-linecap="butt" fill="#FFFFFF" fill-opacity="1"/></g></svg>